<svg xmlns="http://www.w3.org/2000/svg" viewBox="0 0 576 512" fill="#6366f1">
<!-- Font Awesome Free 6.4.2 by @fontawesome - https://fontawesome.com License - https://fontawesome.com/license (Icons: CC BY 4.0, Fonts: SIL OFL 1.1, Code: MIT License) Copyright 2023 Fonticons, Inc. -->
<path d="M249.6 471.5c10.8 3.8 22.4-4.1 22.4-15.5V78.6c0-4.2-2.6-8.1-6.3-9.6L57.5 9.4C21.7-1.1 0 26.6 0 52.8V416c0 14.5 13.6 25 32.2 32.6l217.4 22.9zm55.2 3.4L543.8 448c18.6-7.6 32.2-18.1 32.2-32.6V52.8c0-26.2-21.7-53.9-57.5-43.4L296 69c-3.7 1.6-6.3 5.4-6.3 9.6v377.4c0 11.4 11.6 19.3 22.4 15.5z"/>
</svg>
